<svg width="143" height="88" viewBox="0 0 143 88" fill="none" xmlns="http://www.w3.org/2000/svg">
<g clip-path="url(#clip0_2217_13437)">
<rect width="143" height="88" rx="5.86667" fill="white"/>
<rect x="68" y="9" width="56" height="7" rx="2.93333" fill="#D5E1ED"/>
<rect x="68" y="34.8" width="67" height="4.4" rx="2.2" fill="#D5E1ED"/>
<rect x="68" y="41.2" width="32" height="5" rx="2.5" fill="#D5E1ED"/>
<rect x="68" y="52.2" width="67" height="4.4" rx="2.2" fill="#D5E1ED"/>
<rect x="68" y="58.5999" width="33" height="5" rx="2.5" fill="#D5E1ED"/>
<rect x="68" y="69.6001" width="67" height="4.4" rx="2.2" fill="#D5E1ED"/>
<rect x="68" y="76" width="32" height="5" rx="2.5" fill="#D5E1ED"/>
<g clip-path="url(#clip1_2217_13437)">
<rect x="10" y="9" width="50" height="70" rx="1.68914" fill="#EFF5FB"/>
<circle cx="16.8509" cy="16.6012" r="3.37828" fill="#D5E1ED"/>
<path d="M43.2109 75.7936C45.0561 67.0944 53.2018 48.2663 62.3826 68.0981C71.5634 87.9298 52.7068 83.6208 43.2109 75.7936Z" fill="#D5E1ED"/>
<path d="M26.8125 78.3317C29.3124 71.6096 40.3485 57.0607 52.787 72.3852C65.2255 87.7098 39.6778 84.3801 26.8125 78.3317Z" fill="#D5E1ED"/>
</g>
</g>
<rect x="0.5" y="0.5" width="142" height="87" rx="5.36667" stroke="#D5E1ED"/>
<defs>
<clipPath id="clip0_2217_13437">
<rect width="143" height="88" rx="5.86667" fill="white"/>
</clipPath>
<clipPath id="clip1_2217_13437">
<rect x="10" y="9" width="50" height="70" rx="1.68914" fill="white"/>
</clipPath>
</defs>
</svg>
