<svg width="361" height="108" viewBox="0 0 361 108" fill="none" xmlns="http://www.w3.org/2000/svg">
<g clip-path="url(#clip0_2299_40413)">
<g filter="url(#filter0_dd_2299_40413)">
<path opacity="0.5" fill-rule="evenodd" clip-rule="evenodd" d="M214.832 32.2473C214.832 31.0992 215.763 30.1685 216.911 30.1685L243.468 30.1685C244.616 30.1685 245.546 31.0992 245.546 32.2473C245.546 33.3954 244.616 34.3261 243.468 34.3261L216.911 34.3261C215.763 34.3261 214.832 33.3954 214.832 32.2473Z" fill="#CAD0E2"/>
<path opacity="0.5" fill-rule="evenodd" clip-rule="evenodd" d="M214.832 40.7854C214.832 39.6373 215.763 38.7065 216.911 38.7065L240.622 38.7065C241.77 38.7065 242.701 39.6373 242.701 40.7854C242.701 41.9335 241.77 42.8642 240.622 42.8642L216.911 42.8642C215.763 42.8642 214.832 41.9335 214.832 40.7854Z" fill="#CAD0E2"/>
<path opacity="0.5" fill-rule="evenodd" clip-rule="evenodd" d="M214.832 49.3201C214.832 48.1719 215.763 47.2412 216.911 47.2412L243.468 47.2412C244.616 47.2412 245.546 48.1719 245.546 49.3201C245.546 50.4682 244.616 51.3989 243.468 51.3989L216.911 51.3989C215.763 51.3989 214.832 50.4682 214.832 49.3201Z" fill="#CAD0E2"/>
<path d="M170.433 5.41023L170.433 86.5907C170.433 89.5785 172.855 92.0005 175.843 92.0005L244.412 92.0005L252 83.9386L252 5.41023C252 2.42252 249.578 0.000488282 246.59 0.000488284L175.843 0.000488316C172.855 0.000488317 170.433 2.42252 170.433 5.41023Z" fill="white"/>
<g filter="url(#filter1_d_2299_40413)">
<path d="M245.248 83.9365L252 83.9365L244.413 91.9984L243.141 86.596C242.822 85.2377 243.852 83.9365 245.248 83.9365Z" fill="white"/>
</g>
<path d="M238.274 23.0013C238.274 23.0013 243.701 23.0013 243.701 17.8902L243.701 12.7791C243.701 12.7791 243.701 7.66797 238.274 7.66797L184.001 7.66797C184.001 7.66797 178.574 7.66797 178.574 12.7791L178.574 17.8902C178.574 17.8902 178.574 23.0013 184.001 23.0013L238.274 23.0013Z" fill="#D2DEFF"/>
<path d="M205.711 53.6664C205.711 53.6664 211.138 53.6664 211.138 48.5553L211.138 33.222C211.138 33.222 211.138 28.1108 205.711 28.1108L184.001 28.1108C184.001 28.1108 178.574 28.1108 178.574 33.222L178.574 48.5553C178.574 48.5553 178.574 53.6664 184.001 53.6664L205.711 53.6664Z" fill="#80A1FF"/>
<rect x="179.898" y="58.1172" width="65.3212" height="4.24164" rx="2.12082" fill="#D2DEFF"/>
<rect x="179.898" y="64.874" width="57.6863" height="4.24164" rx="2.12082" fill="#D2DEFF"/>
<rect x="179.898" y="71.667" width="65.3212" height="4.24164" rx="2.12082" fill="#D2DEFF"/>
<rect x="179.898" y="78.4604" width="62.7762" height="4.24164" rx="2.12082" fill="#D2DEFF"/>
<path fill-rule="evenodd" clip-rule="evenodd" d="M214.828 32.2493C214.828 31.1011 215.759 30.1704 216.907 30.1704L243.464 30.1704C244.612 30.1704 245.543 31.1011 245.543 32.2493C245.543 33.3974 244.612 34.3281 243.464 34.3281L216.907 34.3281C215.759 34.3281 214.828 33.3974 214.828 32.2493Z" fill="#D2DEFF"/>
<path fill-rule="evenodd" clip-rule="evenodd" d="M214.828 40.7869C214.828 39.6387 215.759 38.708 216.907 38.708L240.618 38.708C241.766 38.708 242.697 39.6387 242.697 40.7869C242.697 41.935 241.766 42.8657 240.618 42.8657L216.907 42.8657C215.759 42.8657 214.828 41.935 214.828 40.7869Z" fill="#D2DEFF"/>
<path fill-rule="evenodd" clip-rule="evenodd" d="M214.828 49.3215C214.828 48.1734 215.759 47.2427 216.907 47.2427L243.464 47.2427C244.612 47.2427 245.543 48.1734 245.543 49.3215C245.543 50.4696 244.612 51.4004 243.464 51.4004L216.907 51.4004C215.759 51.4004 214.828 50.4696 214.828 49.3215Z" fill="#D2DEFF"/>
</g>
<g filter="url(#filter2_dd_2299_40413)">
<rect x="77" y="47" width="128" height="32" rx="6" fill="white" shape-rendering="crispEdges"/>
<rect x="77.5" y="47.5" width="127" height="31" rx="5.5" stroke="#EFF5FB" shape-rendering="crispEdges"/>
<path d="M103.665 59.8268C103.666 59.7391 103.649 59.6521 103.616 59.5709C103.583 59.4897 103.534 59.4158 103.472 59.3535L100.645 56.5268C100.583 56.4651 100.509 56.4162 100.428 56.383C100.347 56.3498 100.26 56.333 100.172 56.3335C100.084 56.333 99.9973 56.3498 99.9161 56.383C99.8349 56.4162 99.761 56.4651 99.6987 56.5268L97.812 58.4135L90.5254 65.7002C90.4636 65.7625 90.4147 65.8363 90.3815 65.9176C90.3484 65.9988 90.3315 66.0858 90.332 66.1735V69.0002C90.332 69.177 90.4023 69.3466 90.5273 69.4716C90.6523 69.5966 90.8219 69.6668 90.9987 69.6668H93.8254C93.9187 69.6719 94.012 69.6573 94.0993 69.624C94.1865 69.5907 94.2658 69.5394 94.332 69.4735L101.579 62.1868L103.472 60.3335C103.533 60.2689 103.582 60.1945 103.619 60.1135C103.625 60.0604 103.625 60.0066 103.619 59.9535C103.622 59.9225 103.622 59.8912 103.619 59.8602L103.665 59.8268ZM93.552 68.3335H91.6654V66.4468L98.2854 59.8268L100.172 61.7135L93.552 68.3335ZM101.112 60.7735L99.2254 58.8868L100.172 57.9468L102.052 59.8268L101.112 60.7735Z" fill="#80A1FF"/>
<path d="M124.999 64.3335C124.822 64.3335 124.652 64.4037 124.527 64.5288C124.402 64.6538 124.332 64.8234 124.332 65.0002V67.6668C124.332 67.8436 124.262 68.0132 124.137 68.1382C124.012 68.2633 123.842 68.3335 123.665 68.3335H114.332C114.155 68.3335 113.986 68.2633 113.861 68.1382C113.736 68.0132 113.665 67.8436 113.665 67.6668V65.0002C113.665 64.8234 113.595 64.6538 113.47 64.5288C113.345 64.4037 113.176 64.3335 112.999 64.3335C112.822 64.3335 112.652 64.4037 112.527 64.5288C112.402 64.6538 112.332 64.8234 112.332 65.0002V67.6668C112.332 68.1973 112.543 68.706 112.918 69.081C113.293 69.4561 113.802 69.6668 114.332 69.6668H123.665C124.196 69.6668 124.705 69.4561 125.08 69.081C125.455 68.706 125.665 68.1973 125.665 67.6668V65.0002C125.665 64.8234 125.595 64.6538 125.47 64.5288C125.345 64.4037 125.176 64.3335 124.999 64.3335ZM118.525 65.4735C118.589 65.5342 118.664 65.5818 118.745 65.6135C118.825 65.6488 118.911 65.667 118.999 65.667C119.086 65.667 119.172 65.6488 119.252 65.6135C119.334 65.5818 119.409 65.5342 119.472 65.4735L122.139 62.8068C122.264 62.6813 122.335 62.511 122.335 62.3335C122.335 62.156 122.264 61.9857 122.139 61.8602C122.013 61.7346 121.843 61.6641 121.665 61.6641C121.488 61.6641 121.318 61.7346 121.192 61.8602L119.665 63.3935V57.0002C119.665 56.8234 119.595 56.6538 119.47 56.5288C119.345 56.4037 119.176 56.3335 118.999 56.3335C118.822 56.3335 118.652 56.4037 118.527 56.5288C118.402 56.6538 118.332 56.8234 118.332 57.0002V63.3935L116.805 61.8602C116.743 61.798 116.669 61.7487 116.588 61.7151C116.507 61.6814 116.42 61.6641 116.332 61.6641C116.244 61.6641 116.157 61.6814 116.076 61.7151C115.995 61.7487 115.921 61.798 115.859 61.8602C115.797 61.9223 115.747 61.9961 115.714 62.0773C115.68 62.1585 115.663 62.2456 115.663 62.3335C115.663 62.4214 115.68 62.5084 115.714 62.5897C115.747 62.6709 115.797 62.7447 115.859 62.8068L118.525 65.4735Z" fill="#80A1FF"/>
<path d="M147 60.9602C146.993 60.8989 146.98 60.8386 146.96 60.7802V60.7202C146.928 60.6516 146.885 60.5886 146.833 60.5335L142.833 56.5335C142.778 56.4816 142.715 56.4389 142.647 56.4068C142.627 56.404 142.607 56.404 142.587 56.4068C142.519 56.368 142.444 56.3431 142.367 56.3335H139.667C139.136 56.3335 138.628 56.5442 138.252 56.9193C137.877 57.2944 137.667 57.8031 137.667 58.3335V59.0002H137C136.47 59.0002 135.961 59.2109 135.586 59.5859C135.211 59.961 135 60.4697 135 61.0002V67.6668C135 68.1973 135.211 68.706 135.586 69.081C135.961 69.4561 136.47 69.6668 137 69.6668H142.333C142.864 69.6668 143.372 69.4561 143.748 69.081C144.123 68.706 144.333 68.1973 144.333 67.6668V67.0002H145C145.53 67.0002 146.039 66.7894 146.414 66.4144C146.789 66.0393 147 65.5306 147 65.0002V61.0002C147 61.0002 147 61.0002 147 60.9602ZM143 58.6068L144.727 60.3335H143.667C143.49 60.3335 143.32 60.2633 143.195 60.1382C143.07 60.0132 143 59.8436 143 59.6668V58.6068ZM143 67.6668C143 67.8436 142.93 68.0132 142.805 68.1382C142.68 68.2633 142.51 68.3335 142.333 68.3335H137C136.823 68.3335 136.654 68.2633 136.529 68.1382C136.404 68.0132 136.333 67.8436 136.333 67.6668V61.0002C136.333 60.8234 136.404 60.6538 136.529 60.5288C136.654 60.4037 136.823 60.3335 137 60.3335H137.667V65.0002C137.667 65.5306 137.877 66.0393 138.252 66.4144C138.628 66.7894 139.136 67.0002 139.667 67.0002H143V67.6668ZM145.667 65.0002C145.667 65.177 145.596 65.3465 145.471 65.4716C145.346 65.5966 145.177 65.6668 145 65.6668H139.667C139.49 65.6668 139.32 65.5966 139.195 65.4716C139.07 65.3465 139 65.177 139 65.0002V58.3335C139 58.1567 139.07 57.9871 139.195 57.8621C139.32 57.7371 139.49 57.6668 139.667 57.6668H141.667V59.6668C141.667 60.1973 141.877 60.706 142.252 61.081C142.628 61.4561 143.136 61.6668 143.667 61.6668H145.667V65.0002Z" fill="#80A1FF"/>
<path d="M167.999 60.2096C167.96 60.3922 167.849 60.4945 167.718 60.499C167.455 60.4973 167.35 60.3854 167.302 60.0999C167.184 59.3997 166.838 58.8763 166.194 58.5988C166.066 58.5436 165.929 58.5099 165.792 58.4762C165.717 58.4578 165.642 58.4393 165.568 58.4174C165.408 58.3699 165.334 58.2523 165.335 58.0811C165.335 57.9087 165.413 57.7957 165.571 57.7465C165.635 57.7267 165.7 57.7132 165.766 57.6997C165.771 57.6985 165.777 57.6973 165.783 57.6962C166.327 57.582 166.764 57.3051 167.054 56.802C167.195 56.559 167.257 56.2922 167.308 56.0181C167.345 55.8192 167.436 55.6626 167.664 55.6666C167.875 55.67 167.974 55.8011 168.009 56.0012C168.013 56.0253 168.019 56.0491 168.025 56.0729C168.03 56.0926 168.035 56.1123 168.039 56.1323C168.203 56.9433 168.655 57.4712 169.444 57.6674C169.479 57.6761 169.514 57.6837 169.55 57.6912C169.628 57.7081 169.707 57.7249 169.78 57.755C169.917 57.8109 170.001 57.9183 170.001 58.0833C170.001 58.2484 169.915 58.3512 169.78 58.4112C169.726 58.435 169.666 58.446 169.607 58.457C169.587 58.4606 169.568 58.4642 169.548 58.4682C168.996 58.5852 168.553 58.8673 168.264 59.381C168.125 59.6282 168.065 59.9033 168.006 60.1783C168.004 60.1887 168.002 60.1992 167.999 60.2096Z" fill="#80A1FF"/>
<path fill-rule="evenodd" clip-rule="evenodd" d="M160.3 65.3685C161.044 66.1126 161.437 67.2529 161.923 69.4049C162.002 69.7526 162.311 69.9998 162.668 69.9998C163.025 69.9998 163.335 69.7526 163.413 69.4049C163.9 67.2529 164.293 66.1126 165.037 65.3685C165.781 64.6243 166.921 64.231 169.073 63.7448L169.074 63.7446C169.422 63.6654 169.668 63.357 169.668 62.9998C169.668 62.6424 169.421 62.3343 169.074 62.2551L169.073 62.2549C166.921 61.7689 165.781 61.3756 165.037 60.6315C164.293 59.8874 163.899 58.7469 163.413 56.5946C163.335 56.247 163.025 55.9998 162.668 55.9998C162.311 55.9998 162.002 56.2471 161.923 56.5948C161.437 58.747 161.044 59.8874 160.3 60.6315C159.556 61.3756 158.416 61.7689 156.263 62.2549L156.263 62.2551C155.916 62.3342 155.668 62.6422 155.668 62.9998C155.668 63.3575 155.916 63.6655 156.263 63.7446L156.263 63.7448C158.416 64.231 159.556 64.6243 160.3 65.3685ZM162.754 58.7984C162.728 58.7163 162.609 58.7163 162.583 58.7984C161.836 61.195 160.863 62.1678 158.466 62.9151C158.384 62.9407 158.384 63.06 158.466 63.0856C160.863 63.8329 161.836 64.8065 162.583 67.2024C162.609 67.2845 162.728 67.2845 162.754 67.2024C163.501 64.8061 164.474 63.8329 166.87 63.0856C166.952 63.06 166.952 62.9407 166.87 62.9151C164.474 62.1678 163.501 61.1946 162.754 58.7984Z" fill="#80A1FF"/>
<path d="M191.844 56.6185C191.655 56.4606 191.426 56.3571 191.182 56.3191C190.938 56.281 190.688 56.3098 190.459 56.4024L178.512 61.2259C178.256 61.3311 178.039 61.5114 177.888 61.743C177.738 61.9746 177.661 62.2466 177.668 62.5228C177.676 62.7989 177.767 63.0663 177.93 63.2893C178.094 63.5124 178.321 63.6805 178.581 63.7715L180.998 64.612L182.345 69.0664C182.363 69.1259 182.39 69.1826 182.424 69.2347C182.429 69.2427 182.436 69.2487 182.442 69.2564C182.481 69.3113 182.529 69.3598 182.583 69.4003C182.598 69.412 182.613 69.423 182.629 69.4334C182.693 69.4754 182.763 69.5061 182.837 69.5241L182.844 69.5248L182.849 69.5267C182.893 69.5357 182.938 69.5403 182.984 69.5404C182.988 69.5404 182.992 69.5383 182.996 69.5382C183.065 69.537 183.132 69.5253 183.197 69.5033C183.212 69.4982 183.225 69.4896 183.24 69.4835C183.288 69.4635 183.334 69.4378 183.376 69.4071C183.41 69.3786 183.443 69.3501 183.477 69.3216L185.279 67.3327L187.966 69.4141C188.202 69.5982 188.493 69.6983 188.793 69.6986C189.107 69.6982 189.412 69.5898 189.655 69.3916C189.899 69.1934 190.067 68.9175 190.132 68.61L192.307 57.9323C192.356 57.692 192.339 57.4428 192.258 57.2114C192.176 56.98 192.033 56.775 191.844 56.6185ZM183.248 64.8243C183.156 64.9163 183.092 65.0336 183.066 65.1615L182.86 66.1642L182.337 64.4354L185.048 63.0241L183.248 64.8243ZM188.783 68.36L185.607 65.9004C185.475 65.7978 185.308 65.7489 185.141 65.7636C184.974 65.7784 184.818 65.8556 184.705 65.9798L184.128 66.6166L184.332 65.6257L189.054 60.9037C189.167 60.7911 189.235 60.6419 189.248 60.4831C189.26 60.3243 189.215 60.1663 189.121 60.0379C189.026 59.9094 188.889 59.819 188.734 59.7829C188.579 59.7468 188.416 59.7675 188.275 59.8412L181.498 63.3696L179.015 62.461L191.001 57.666L188.783 68.36Z" fill="#80A1FF"/>
</g>
</g>
<defs>
<filter id="filter0_dd_2299_40413" x="161.95" y="-3.39331" width="98.533" height="108.967" filterUnits="userSpaceOnUse" color-interpolation-filters="sRGB">
<feFlood flood-opacity="0" result="BackgroundImageFix"/>
<feColorMatrix in="SourceAlpha" type="matrix" values="0 0 0 0 0 0 0 0 0 0 0 0 0 0 0 0 0 0 127 0" result="hardAlpha"/>
<feOffset dy="1.69666"/>
<feGaussianBlur stdDeviation="1.69666"/>
<feComposite in2="hardAlpha" operator="out"/>
<feColorMatrix type="matrix" values="0 0 0 0 0.074375 0 0 0 0 0.207589 0 0 0 0 0.330555 0 0 0 0.04 0"/>
<feBlend mode="normal" in2="BackgroundImageFix" result="effect1_dropShadow_2299_40413"/>
<feColorMatrix in="SourceAlpha" type="matrix" values="0 0 0 0 0 0 0 0 0 0 0 0 0 0 0 0 0 0 127 0" result="hardAlpha"/>
<feOffset dy="5.08997"/>
<feGaussianBlur stdDeviation="4.24164"/>
<feComposite in2="hardAlpha" operator="out"/>
<feColorMatrix type="matrix" values="0 0 0 0 0.345098 0 0 0 0 0.501961 0 0 0 0 0.945098 0 0 0 0.1 0"/>
<feBlend mode="normal" in2="effect1_dropShadow_2299_40413" result="effect2_dropShadow_2299_40413"/>
<feBlend mode="normal" in="SourceGraphic" in2="effect2_dropShadow_2299_40413" result="shape"/>
</filter>
<filter id="filter1_d_2299_40413" x="239.006" y="79.8607" width="14.3524" height="13.4964" filterUnits="userSpaceOnUse" color-interpolation-filters="sRGB">
<feFlood flood-opacity="0" result="BackgroundImageFix"/>
<feColorMatrix in="SourceAlpha" type="matrix" values="0 0 0 0 0 0 0 0 0 0 0 0 0 0 0 0 0 0 127 0" result="hardAlpha"/>
<feOffset dx="-1.3586" dy="-1.3586"/>
<feGaussianBlur stdDeviation="1.3586"/>
<feComposite in2="hardAlpha" operator="out"/>
<feColorMatrix type="matrix" values="0 0 0 0 0.074375 0 0 0 0 0.207589 0 0 0 0 0.330555 0 0 0 0.07 0"/>
<feBlend mode="normal" in2="BackgroundImageFix" result="effect1_dropShadow_2299_40413"/>
<feBlend mode="normal" in="SourceGraphic" in2="effect1_dropShadow_2299_40413" result="shape"/>
</filter>
<filter id="filter2_dd_2299_40413" x="67" y="43" width="148" height="52" filterUnits="userSpaceOnUse" color-interpolation-filters="sRGB">
<feFlood flood-opacity="0" result="BackgroundImageFix"/>
<feColorMatrix in="SourceAlpha" type="matrix" values="0 0 0 0 0 0 0 0 0 0 0 0 0 0 0 0 0 0 127 0" result="hardAlpha"/>
<feOffset dy="2"/>
<feGaussianBlur stdDeviation="2"/>
<feComposite in2="hardAlpha" operator="out"/>
<feColorMatrix type="matrix" values="0 0 0 0 0.074375 0 0 0 0 0.207589 0 0 0 0 0.330555 0 0 0 0.04 0"/>
<feBlend mode="normal" in2="BackgroundImageFix" result="effect1_dropShadow_2299_40413"/>
<feColorMatrix in="SourceAlpha" type="matrix" values="0 0 0 0 0 0 0 0 0 0 0 0 0 0 0 0 0 0 127 0" result="hardAlpha"/>
<feOffset dy="6"/>
<feGaussianBlur stdDeviation="5"/>
<feComposite in2="hardAlpha" operator="out"/>
<feColorMatrix type="matrix" values="0 0 0 0 0.345098 0 0 0 0 0.501961 0 0 0 0 0.945098 0 0 0 0.1 0"/>
<feBlend mode="normal" in2="effect1_dropShadow_2299_40413" result="effect2_dropShadow_2299_40413"/>
<feBlend mode="normal" in="SourceGraphic" in2="effect2_dropShadow_2299_40413" result="shape"/>
</filter>
<clipPath id="clip0_2299_40413">
<rect width="361" height="108" fill="white"/>
</clipPath>
</defs>
</svg>
